<svg width="132" height="78" viewBox="0 0 132 78" fill="none" xmlns="http://www.w3.org/2000/svg">
<path d="M60.2222 49.8518C60.2198 49.8518 60.5852 49.7416 61.3183 49.5211C61.3529 49.5115 61.375 49.5235 61.3846 49.5571C61.7117 50.6773 62.0556 51.6832 62.4162 52.5746C63.3905 54.9739 64.7087 57.4775 66.258 59.627C67.8496 61.834 69.4837 63.7163 71.1601 65.2739C72.6407 66.6494 74.4652 68.0266 76.6335 69.4057C77.6461 70.0491 78.6956 70.6189 79.7822 71.1149C83.0562 72.6078 86.1941 73.6142 89.1959 74.1342C90.7135 74.3966 92.5947 74.5506 94.8395 74.5961C96.5899 74.6309 98.6443 74.4458 101.002 74.0408C104.255 73.4836 107.308 72.5095 110.16 71.1185C113.925 69.2829 117.234 66.9189 120.086 64.0266C121.589 62.5013 122.906 60.8952 124.035 59.2082C125.137 57.5631 126.149 55.7389 127.069 53.7356C127.933 51.8545 128.66 49.6906 129.251 47.244C129.534 46.0698 129.749 44.8369 129.897 43.5453C130.633 37.1076 129.697 30.9407 127.091 25.0446C126.327 23.3144 125.366 21.5543 124.209 19.7643C123.384 18.4871 122.274 17.0654 120.878 15.4995C120.122 14.653 119.305 13.9448 118.481 13.1792C118.036 12.7647 117.553 12.3549 117.032 11.9499C116.359 11.4269 115.719 10.9003 115.014 10.4205C113.46 9.36609 111.875 8.44171 110.259 7.64733C108.245 6.66005 106.164 5.88724 104.013 5.3289C101.117 4.57646 98.2341 4.17568 95.3661 4.12655C94.0944 4.10379 92.704 4.17148 91.1947 4.32964C89.9852 4.45664 88.858 4.63637 87.8132 4.86881C85.0884 5.47508 82.4455 6.3701 79.8843 7.55388C76.5744 9.08332 73.3863 11.3407 70.8395 13.7759C68.5959 15.9194 66.695 18.2534 65.1368 20.7779C64.0574 22.5272 63.1356 24.3634 62.3714 26.2865C62.0228 27.1647 61.6968 28.1214 61.3935 29.1566C61.3913 29.1648 61.3875 29.1724 61.3822 29.179C61.3769 29.1856 61.3703 29.1911 61.3628 29.1951C61.3553 29.1991 61.347 29.2016 61.3384 29.2024C61.3299 29.2032 61.3212 29.2023 61.3129 29.1998L60.224 28.8655C60.1905 28.8547 60.1798 28.8325 60.1917 28.799C60.6502 27.5409 61.0407 26.2289 61.5959 24.9781C62.2096 23.599 62.895 22.2391 63.652 20.8983C64.0043 20.2729 64.3571 19.7068 64.7105 19.2C65.221 18.4649 65.7063 17.7244 66.2669 17.0289C67.0037 16.1135 67.6825 15.3221 68.3034 14.6548C70.4419 12.3555 72.6472 10.4606 74.9195 8.9701C80.9326 5.02816 87.5971 3.00747 94.9129 2.90803C96.7673 2.88286 98.8538 3.06738 101.173 3.46157C104.208 3.97798 107.257 4.92572 110.319 6.3048C111.697 6.92485 113.11 7.71024 114.41 8.55134C116.152 9.68001 117.659 10.8027 118.929 11.9194C119.878 12.7533 120.93 13.8083 122.085 15.0843C122.917 16.0033 123.667 16.9223 124.334 17.8413C126.469 20.7803 128.135 23.9554 129.331 27.3666C129.944 29.1111 130.441 31.0881 130.823 33.2975C131.38 36.5241 131.503 39.6429 131.194 42.6539C130.875 45.7535 130.262 48.6381 129.355 51.3076C128.98 52.4075 128.504 53.5972 127.999 54.654C126.514 57.7542 124.714 60.6927 122.414 63.2771C121.304 64.5244 120.13 65.7076 118.893 66.8267C118.264 67.3958 117.375 68.0967 116.226 68.9295C114.401 70.2522 112.561 71.3521 110.706 72.2292C106.279 74.3248 101.564 75.5073 96.5625 75.7769C95.4078 75.838 94.2299 75.8302 93.0287 75.7536C86.4102 75.3258 80.424 73.3554 75.0699 69.8424C71.3267 67.385 68.0461 64.1997 65.2281 60.2865C63.6664 58.1173 62.3804 55.5994 61.3111 53.0671C61.0795 52.5171 60.7069 51.4633 60.1935 49.9057C60.184 49.8782 60.1935 49.8602 60.2222 49.8518Z" fill="#11295A"/>
<path d="M17.774 30.2413L16.402 30.2389C16.3704 30.2388 16.3447 30.2645 16.3446 30.2963L16.3423 31.6622C16.3422 31.6939 16.3678 31.7197 16.3995 31.7198L17.7714 31.7222C17.8031 31.7222 17.8288 31.6965 17.8288 31.6648L17.8312 30.2989C17.8312 30.2671 17.8056 30.2413 17.774 30.2413Z" fill="#11295A"/>
<path d="M59.3658 42.7743L61.164 42.7761C61.1754 42.7761 61.1863 42.7807 61.1944 42.7888C61.2024 42.7968 61.207 42.8078 61.207 42.8193V44.2499C61.207 44.2786 61.1926 44.2936 61.164 44.2948C59.7222 44.3523 58.2249 44.4907 57.4494 43.0367C57.2858 42.7288 57.2064 42.1818 57.2111 41.3958C57.235 37.7654 57.2362 34.0637 57.2147 30.2907C57.2147 30.2769 57.2202 30.2637 57.2299 30.2539C57.2397 30.2441 57.2529 30.2386 57.2667 30.2386L58.6601 30.2368C58.6664 30.2368 58.6727 30.2381 58.6786 30.2406C58.6845 30.2432 58.6898 30.2469 58.6943 30.2516C58.6988 30.2562 58.7023 30.2618 58.7048 30.2679C58.7072 30.274 58.7085 30.2805 58.7085 30.2871L58.7102 42.1165C58.7102 42.2907 58.7793 42.4577 58.9021 42.581C59.025 42.7043 59.1917 42.7739 59.3658 42.7743Z" fill="#11295A"/>
<path d="M13.7767 37.4991C14.194 37.9395 14.443 38.502 14.434 39.1131C14.4197 39.9865 14.4215 40.8905 14.4394 41.8251C14.4489 42.3439 14.3612 42.7734 14.1761 43.1137C13.6657 44.0572 12.7648 44.3125 11.6937 44.3107C8.25132 44.3035 4.81729 44.3005 1.39162 44.3017C1.37879 44.3017 1.36649 44.2966 1.35743 44.2875C1.34836 44.2784 1.34326 44.266 1.34326 44.2531V31.2304C1.34326 31.1657 1.3755 31.1333 1.43998 31.1333C4.4549 31.1393 7.73908 31.1375 11.2925 31.1279C12.3671 31.1261 13.2 31.4425 13.6692 32.4381C13.8352 32.7904 13.9068 33.3751 13.8842 34.1922C13.8609 35.0585 14.0113 36.1943 13.6818 36.9905C13.647 37.0751 13.6374 37.1681 13.6543 37.2583C13.6711 37.3486 13.7136 37.4322 13.7767 37.4991ZM12.3761 33.3547C12.3761 33.2582 12.3572 33.1626 12.3203 33.0734C12.2835 32.9842 12.2296 32.9032 12.1615 32.8349C12.0935 32.7667 12.0128 32.7125 11.9239 32.6756C11.835 32.6387 11.7398 32.6196 11.6436 32.6196H3.55162C3.45542 32.6196 3.36017 32.6387 3.27129 32.6756C3.18241 32.7125 3.10166 32.7667 3.03364 32.8349C2.96562 32.9032 2.91166 32.9842 2.87484 33.0734C2.83803 33.1626 2.81908 33.2582 2.81908 33.3547V36.1081C2.81908 36.303 2.89626 36.49 3.03364 36.6278C3.17102 36.7657 3.35734 36.8431 3.55162 36.8431H11.6436C11.8378 36.8431 12.0242 36.7657 12.1615 36.6278C12.2989 36.49 12.3761 36.303 12.3761 36.1081V33.3547ZM12.9618 39.0861C12.9618 38.884 12.8818 38.6902 12.7393 38.5473C12.5969 38.4044 12.4038 38.3241 12.2024 38.3241H3.57669C3.37529 38.3241 3.18213 38.4044 3.03972 38.5473C2.8973 38.6902 2.81729 38.884 2.81729 39.0861V42.0551C2.81729 42.2572 2.8973 42.4511 3.03972 42.594C3.18213 42.7369 3.37529 42.8172 3.57669 42.8172H12.2024C12.4038 42.8172 12.5969 42.7369 12.7393 42.594C12.8818 42.4511 12.9618 42.2572 12.9618 42.0551V39.0861Z" fill="#11295A"/>
<path d="M80.0635 31.2379C80.0635 31.2103 80.0744 31.1838 80.0939 31.1642C80.1134 31.1447 80.1398 31.1337 80.1674 31.1337L90.7363 31.1157C91.3866 31.1148 92.0106 31.3759 92.4711 31.8417C92.9316 32.3075 93.1909 32.9398 93.1918 33.5995L93.2062 41.8129C93.2066 42.1395 93.1437 42.4631 93.0209 42.765C92.8981 43.067 92.7179 43.3415 92.4906 43.5728C92.2632 43.8041 91.9932 43.9877 91.6959 44.1131C91.3986 44.2386 91.0798 44.3034 90.7578 44.3038L80.1889 44.3218C80.1752 44.3218 80.1617 44.3191 80.1491 44.3139C80.1365 44.3086 80.125 44.301 80.1154 44.2913C80.1058 44.2816 80.0981 44.2701 80.0929 44.2575C80.0877 44.2448 80.085 44.2313 80.085 44.2176L80.0635 31.2379ZM91.6941 33.3821C91.694 33.2809 91.6739 33.1807 91.6351 33.0872C91.5964 32.9937 91.5396 32.9088 91.4681 32.8374C91.3967 32.7659 91.3119 32.7092 91.2186 32.6707C91.1253 32.6321 91.0253 32.6123 90.9244 32.6125L82.3095 32.6276C82.2086 32.6277 82.1088 32.6479 82.0156 32.6868C81.9225 32.7257 81.8378 32.7826 81.7666 32.8543C81.6954 32.9261 81.6389 33.0112 81.6005 33.1048C81.562 33.1984 81.5423 33.2987 81.5425 33.3999L81.5576 42.0554C81.5578 42.1566 81.5778 42.2569 81.6166 42.3503C81.6554 42.4438 81.7121 42.5287 81.7836 42.6002C81.8551 42.6717 81.9399 42.7283 82.0331 42.7669C82.1264 42.8055 82.2264 42.8252 82.3273 42.8251L90.9422 42.81C91.0431 42.8098 91.143 42.7897 91.2361 42.7508C91.3293 42.7119 91.4139 42.6549 91.4851 42.5832C91.5563 42.5115 91.6128 42.4264 91.6512 42.3328C91.6897 42.2392 91.7094 42.1389 91.7092 42.0376L91.6941 33.3821Z" fill="#11295A"/>
<path d="M17.7743 33.6982H16.3988C16.3681 33.6982 16.3433 33.7232 16.3433 33.754V44.2462C16.3433 44.277 16.3681 44.3019 16.3988 44.3019H17.7743C17.805 44.3019 17.8298 44.277 17.8298 44.2462V33.754C17.8298 33.7232 17.805 33.6982 17.7743 33.6982Z" fill="#11295A"/>
<path d="M21.3276 41.9545C21.3294 42.2816 21.4978 42.774 21.9097 42.774C24.8363 42.774 27.7115 42.774 30.5354 42.774C30.5664 42.774 30.582 42.7902 30.582 42.8225L30.5802 44.2585C30.5802 44.2909 30.564 44.3071 30.5318 44.3071C28.1211 44.2927 25.5629 44.2945 22.8572 44.3124C21.9975 44.3184 21.3939 44.2274 21.0464 44.0393C20.1706 43.563 19.816 42.7902 19.8267 41.8089C19.8458 40.0081 19.844 38.2354 19.8214 36.4909C19.813 35.8091 19.8984 35.2939 20.0775 34.9453C20.6094 33.91 21.4458 33.6746 22.5706 33.6818C25.453 33.7034 28.0906 33.7064 30.4834 33.6908C30.5205 33.6908 30.539 33.7094 30.539 33.7465L30.5426 35.1789C30.5426 35.1913 30.5375 35.2032 30.5284 35.2119C30.5193 35.2207 30.507 35.2256 30.4942 35.2256H22.0279C21.8414 35.2256 21.6624 35.2999 21.5302 35.4323C21.398 35.5646 21.3232 35.7443 21.3223 35.9319C21.3151 38.0766 21.3169 40.0841 21.3276 41.9545Z" fill="#11295A"/>
<path d="M46.1317 35.5959C46.084 35.6798 46.0601 35.7696 46.0601 35.8655L46.0619 42.1378C46.0619 42.3066 46.1285 42.4684 46.2471 42.5877C46.3656 42.707 46.5264 42.7741 46.6941 42.7741H55.2607C55.274 42.7741 55.2868 42.7795 55.2962 42.7893C55.3056 42.7991 55.3108 42.8123 55.3108 42.8262L55.3037 44.2532C55.3037 44.2891 55.2858 44.3071 55.25 44.3071C53.1079 44.2939 50.4923 44.2957 47.4034 44.3125C46.6798 44.3161 46.1341 44.2196 45.7664 44.0231C44.7186 43.4642 44.5252 42.5494 44.5431 41.4171C44.5682 39.9039 44.5694 38.3049 44.5467 36.6203C44.5371 35.8643 44.6189 35.3173 44.792 34.9794C45.2864 34.0143 46.044 33.6836 47.072 33.689C49.7717 33.7022 52.4888 33.704 55.2231 33.6944C55.2297 33.6944 55.2362 33.6957 55.2423 33.6981C55.2484 33.7006 55.2539 33.7041 55.2585 33.7086C55.2632 33.7131 55.2669 33.7185 55.2694 33.7244C55.2719 33.7303 55.2732 33.7366 55.2732 33.7429L55.2804 35.17C55.2804 35.2059 55.2625 35.2239 55.2267 35.2239C52.1843 35.2263 49.3813 35.2263 46.8177 35.2239C46.5049 35.2227 46.2762 35.3467 46.1317 35.5959Z" fill="#11295A"/>
<path d="M63.9136 39.8231L63.9189 42.1343C63.9194 42.3041 63.9868 42.4669 64.1063 42.5868C64.2258 42.7068 64.3877 42.7741 64.5565 42.7741H73.1195C73.1314 42.7741 73.1428 42.7788 73.1512 42.7873C73.1596 42.7957 73.1643 42.8071 73.1643 42.819V44.2532C73.1643 44.2601 73.163 44.2669 73.1603 44.2732C73.1577 44.2795 73.1539 44.2852 73.1491 44.2901C73.1443 44.2949 73.1385 44.2988 73.1322 44.3014C73.1259 44.304 73.1192 44.3054 73.1124 44.3054C70.6264 44.2958 67.9834 44.2976 65.1834 44.3107C64.541 44.3143 64.0371 44.2263 63.6718 44.0466C62.7727 43.6008 62.4073 42.7813 62.4127 41.8108C62.421 39.8758 62.4216 38.0126 62.4144 36.2214C62.4091 34.6524 63.3547 33.6657 64.9237 33.6873C66.5452 33.7101 68.3088 33.7095 70.2144 33.6855C71.538 33.6693 72.3977 33.8562 72.9547 35.0262C73.11 35.3521 73.1828 35.808 73.1733 36.3939C73.1553 37.5765 73.1553 38.6495 73.1733 39.6128C73.1744 39.6835 73.1404 39.7188 73.0712 39.7188H64.0156C63.9476 39.7188 63.9136 39.7536 63.9136 39.8231ZM63.9171 38.1714C63.9171 38.1886 63.9239 38.205 63.936 38.2171C63.9481 38.2293 63.9645 38.2361 63.9816 38.2361H71.5183C71.59 38.2361 71.6276 38.2001 71.6312 38.1283C71.6527 37.6083 71.6628 37.0649 71.6616 36.4982C71.6616 35.8458 71.6813 35.2275 70.9273 35.2275C68.8425 35.2251 66.7303 35.2251 64.5906 35.2275C64.5021 35.2275 64.4146 35.245 64.3329 35.279C64.2511 35.3129 64.1769 35.3627 64.1144 35.4254C64.0518 35.4882 64.0022 35.5627 63.9684 35.6447C63.9346 35.7267 63.9171 35.8145 63.9171 35.9033V38.1714Z" fill="#11295A"/>
<path d="M96.6128 39.8394L96.6163 42.1399C96.6168 42.3083 96.6836 42.4696 96.8022 42.5886C96.9207 42.7075 97.0812 42.7743 97.2486 42.7743H105.812C105.825 42.7743 105.838 42.7796 105.847 42.789C105.856 42.7985 105.862 42.8113 105.862 42.8246L105.865 44.2534C105.865 44.2605 105.864 44.2675 105.861 44.274C105.859 44.2806 105.855 44.2865 105.85 44.2915C105.845 44.2965 105.839 44.3005 105.832 44.3032C105.826 44.3059 105.819 44.3073 105.812 44.3073C103.291 44.2953 100.684 44.2971 97.9919 44.3127C97.248 44.3175 96.7101 44.233 96.3781 44.0593C95.2856 43.4896 95.076 42.5676 95.0993 41.4317C95.128 39.9341 95.1292 38.4322 95.1029 36.9261C95.0862 36.0167 95.1513 35.4014 95.2981 35.0803C95.7978 33.9876 96.6253 33.6749 97.7501 33.6875C99.5471 33.709 101.357 33.709 103.179 33.6875C103.789 33.6803 104.262 33.7593 104.599 33.9247C105.458 34.3488 105.881 35.1223 105.871 36.2449C105.86 37.4059 105.858 38.5292 105.865 39.6147C105.865 39.6842 105.831 39.719 105.761 39.719H96.731C96.6522 39.719 96.6128 39.7591 96.6128 39.8394ZM96.6772 38.2291L104.289 38.2435C104.308 38.2435 104.326 38.2359 104.34 38.2224C104.353 38.2089 104.361 38.1906 104.361 38.1716L104.364 35.9861C104.365 35.8864 104.344 35.7876 104.302 35.6954C104.261 35.6032 104.201 35.5194 104.125 35.4487C104.049 35.3781 103.958 35.3221 103.858 35.2839C103.759 35.2456 103.652 35.2259 103.544 35.2259L97.4295 35.2151C97.2122 35.2151 97.0038 35.2947 96.85 35.4365C96.6963 35.5784 96.6096 35.7709 96.6092 35.9717L96.6056 38.1572C96.6056 38.1762 96.6131 38.1945 96.6266 38.208C96.64 38.2215 96.6582 38.2291 96.6772 38.2291Z" fill="#11295A"/>
<path d="M118.469 33.6981L120.072 33.6963C120.082 33.6965 120.093 33.6995 120.102 33.705C120.112 33.7105 120.119 33.7183 120.125 33.7277C120.13 33.7372 120.133 33.7478 120.133 33.7587C120.133 33.7695 120.131 33.7802 120.125 33.7897L114.358 44.2694C114.353 44.2793 114.345 44.2876 114.335 44.2933C114.325 44.299 114.314 44.3019 114.303 44.3018L112.649 44.3C112.638 44.3001 112.627 44.2972 112.617 44.2915C112.607 44.2858 112.599 44.2775 112.594 44.2676L106.843 33.7897C106.838 33.7802 106.835 33.7695 106.835 33.7587C106.835 33.7478 106.838 33.7372 106.843 33.7277C106.849 33.7183 106.857 33.7105 106.866 33.705C106.875 33.6995 106.886 33.6965 106.897 33.6963L108.501 33.6981C108.513 33.698 108.524 33.7009 108.534 33.7066C108.543 33.7123 108.551 33.7205 108.557 33.7304L113.43 42.7184C113.436 42.7286 113.444 42.7371 113.453 42.743C113.463 42.749 113.474 42.7521 113.486 42.7521C113.497 42.7521 113.509 42.749 113.518 42.743C113.528 42.7371 113.536 42.7286 113.541 42.7184L118.413 33.7304C118.418 33.7205 118.427 33.7123 118.436 33.7066C118.446 33.7009 118.457 33.698 118.469 33.6981Z" fill="#11295A"/>
<path d="M41.4249 44.3018C39.149 44.303 36.9437 44.3018 34.8087 44.2982C33.2684 44.2964 32.3049 43.3762 32.3066 41.8809C32.3114 39.1311 32.3126 36.4371 32.3102 33.7987C32.3102 33.7835 32.3163 33.7688 32.327 33.7581C32.3378 33.7473 32.3523 33.7412 32.3675 33.7412L33.761 33.7448C33.7724 33.7448 33.7833 33.7493 33.7914 33.7574C33.7994 33.7655 33.804 33.7765 33.804 33.7879V42.1217C33.804 42.2947 33.8725 42.4607 33.9944 42.583C34.1163 42.7054 34.2817 42.7741 34.4541 42.7741H40.8768C40.9648 42.7741 41.0519 42.7567 41.1331 42.7229C41.2144 42.6892 41.2882 42.6397 41.3504 42.5772C41.4126 42.5148 41.462 42.4407 41.4957 42.3592C41.5293 42.2776 41.5466 42.1902 41.5466 42.1019L41.5484 33.7897C41.5484 33.7586 41.564 33.743 41.595 33.743H42.9866C43.0105 33.743 43.0225 33.755 43.0225 33.779C43.038 37.9713 43.0404 42.1199 43.0296 46.2248C43.026 47.1288 42.4726 48.0562 41.6434 48.3366C41.315 48.4468 40.8451 48.4995 40.2338 48.4947C38.1168 48.4767 36.1431 48.4725 34.3126 48.4821C34.2732 48.4833 34.2535 48.4642 34.2535 48.4246L34.2553 46.9976C34.2553 46.9677 34.2696 46.9527 34.2983 46.9527H41.0541C41.1081 46.9526 41.16 46.9321 41.1992 46.8952C41.4511 46.6675 41.5675 46.3848 41.5484 46.0469C41.5198 45.5149 41.5502 44.9613 41.5502 44.4276C41.5502 44.3437 41.5084 44.3018 41.4249 44.3018Z" fill="#11295A"/>
</svg>
