<svg width="98" height="58" viewBox="0 0 98 58" fill="none" xmlns="http://www.w3.org/2000/svg">
<path d="M44.7107 37.0692C44.7089 37.0692 44.9802 36.9873 45.5245 36.8233C45.5502 36.8162 45.5666 36.8251 45.5737 36.8501C45.8166 37.6831 46.0719 38.431 46.3396 39.0939C47.0629 40.878 48.0416 42.7396 49.1918 44.3379C50.3735 45.9791 51.5866 47.3787 52.8312 48.5369C53.9305 49.5597 55.285 50.5839 56.8949 51.6093C57.6466 52.0878 58.4258 52.5114 59.2325 52.8803C61.6632 53.9904 63.9929 54.7387 66.2215 55.1254C67.3482 55.3205 68.7448 55.435 70.4114 55.4689C71.711 55.4947 73.2362 55.3571 74.987 55.0559C77.4017 54.6416 79.668 53.9173 81.7858 52.8829C84.5808 51.518 87.0373 49.7602 89.1551 47.6095C90.2711 46.4753 91.2485 45.281 92.0871 44.0266C92.9053 42.8033 93.6562 41.4469 94.3396 39.9572C94.9805 38.5584 95.5204 36.9494 95.9592 35.1301C96.1693 34.257 96.3293 33.3402 96.4393 32.3798C96.9853 27.5928 96.2908 23.0071 94.3556 18.6228C93.7882 17.3363 93.0751 16.0275 92.2161 14.6965C91.6035 13.7467 90.7791 12.6896 89.7428 11.5252C89.1817 10.8957 88.5753 10.3692 87.9636 9.79989C87.633 9.49162 87.2744 9.18692 86.8879 8.88578C86.3879 8.49689 85.9132 8.10532 85.3893 7.7485C84.236 6.96448 83.0592 6.27712 81.8589 5.68643C80.3643 4.9523 78.8188 4.37764 77.2222 3.96247C75.0716 3.40296 72.9317 3.10494 70.8023 3.06841C69.8582 3.05148 68.8259 3.10182 67.7054 3.21943C66.8074 3.31386 65.9706 3.4475 65.1949 3.62035C63.172 4.07116 61.2098 4.73669 59.3083 5.61694C56.851 6.75422 54.4841 8.43274 52.5932 10.2436C50.9275 11.8375 49.5163 13.573 48.3594 15.4502C47.558 16.751 46.8737 18.1163 46.3063 19.5463C46.0475 20.1993 45.8055 20.9108 45.5803 21.6805C45.5787 21.6866 45.5758 21.6922 45.5719 21.6971C45.568 21.7021 45.5631 21.7061 45.5575 21.7091C45.5519 21.7121 45.5458 21.714 45.5394 21.7146C45.533 21.7152 45.5266 21.7145 45.5205 21.7126L44.712 21.464C44.6872 21.456 44.6792 21.4395 44.6881 21.4146C45.0285 20.4791 45.3184 19.5035 45.7306 18.5734C46.1862 17.5479 46.6951 16.5367 47.2571 15.5397C47.5186 15.0747 47.7805 14.6537 48.0429 14.2768C48.4219 13.7303 48.7823 13.1797 49.1985 12.6625C49.7454 11.9818 50.2494 11.3933 50.7103 10.8971C52.298 9.18737 53.9353 7.77835 55.6223 6.67002C60.0866 3.73884 65.0345 2.23628 70.4659 2.16233C71.8426 2.14362 73.3917 2.28082 75.1133 2.57394C77.3667 2.95794 79.6303 3.66267 81.9041 4.68813C82.9267 5.14919 83.9758 5.7332 84.9412 6.35864C86.2346 7.1979 87.3529 8.03271 88.2961 8.86307C89.0008 9.48316 89.7818 10.2676 90.639 11.2165C91.2569 11.8998 91.8136 12.5832 92.3092 13.2665C93.8942 15.452 95.1308 17.813 96.0191 20.3495C96.4738 21.6467 96.843 23.1167 97.1267 24.7596C97.5398 27.1589 97.6316 29.478 97.402 31.7169C97.1653 34.0218 96.7101 36.1667 96.0363 38.1517C95.7584 38.9696 95.4047 39.8543 95.0297 40.6401C93.9274 42.9454 92.5911 45.1304 90.8837 47.0522C90.0593 47.9797 89.1879 48.8595 88.2695 49.6916C87.8023 50.1148 87.1423 50.636 86.2895 51.2552C84.9341 52.2388 83.5681 53.0567 82.1913 53.7088C78.9043 55.2671 75.404 56.1464 71.6906 56.3469C70.8334 56.3923 69.9589 56.3865 69.0671 56.3295C64.1533 56.0115 59.709 54.5463 55.734 51.9341C52.9549 50.1068 50.5193 47.7382 48.4272 44.8284C47.2677 43.2154 46.313 41.3431 45.5191 39.4601C45.3472 39.0511 45.0706 38.2675 44.6894 37.1093C44.6823 37.0888 44.6894 37.0755 44.7107 37.0692Z" fill="white"/>
<path d="M13.1959 22.4872L12.1773 22.4854C12.1538 22.4854 12.1347 22.5045 12.1347 22.5281L12.1329 23.5438C12.1329 23.5674 12.1519 23.5866 12.1754 23.5866L13.194 23.5884C13.2175 23.5885 13.2365 23.5693 13.2366 23.5457L13.2384 22.5301C13.2384 22.5064 13.2194 22.4873 13.1959 22.4872Z" fill="white"/>
<path d="M44.0744 31.8067L45.4094 31.808C45.4179 31.808 45.426 31.8114 45.432 31.8174C45.438 31.8234 45.4414 31.8316 45.4414 31.8401V32.9038C45.4414 32.9252 45.4307 32.9364 45.4094 32.9373C44.339 32.98 43.2274 33.0829 42.6516 32.0018C42.5302 31.7728 42.4712 31.3661 42.4748 30.7816C42.4925 28.0821 42.4934 25.3295 42.4774 22.524C42.4774 22.5137 42.4815 22.5038 42.4887 22.4966C42.4959 22.4893 42.5058 22.4852 42.516 22.4852L43.5505 22.4839C43.5552 22.4839 43.5599 22.4849 43.5642 22.4867C43.5686 22.4886 43.5726 22.4914 43.5759 22.4948C43.5792 22.4983 43.5819 22.5024 43.5837 22.507C43.5855 22.5115 43.5864 22.5164 43.5864 22.5213L43.5877 31.3175C43.5877 31.447 43.639 31.5712 43.7302 31.6629C43.8214 31.7546 43.9452 31.8063 44.0744 31.8067Z" fill="white"/>
<path d="M10.228 27.884C10.5378 28.2115 10.7226 28.6298 10.716 29.0841C10.7053 29.7336 10.7067 30.4058 10.7199 31.1008C10.727 31.4866 10.6619 31.806 10.5245 32.059C10.1455 32.7606 9.47666 32.9504 8.68149 32.949C6.12578 32.9437 3.57627 32.9415 1.03297 32.9423C1.02345 32.9423 1.01432 32.9385 1.00759 32.9318C1.00085 32.925 0.99707 32.9158 0.99707 32.9063V23.2227C0.99707 23.1746 1.02101 23.1505 1.06887 23.1505C3.30723 23.155 5.74548 23.1536 8.38364 23.1465C9.18147 23.1452 9.79978 23.3804 10.1482 24.1207C10.2714 24.3827 10.3246 24.8174 10.3077 25.4251C10.2904 26.0692 10.4021 26.9138 10.1575 27.5058C10.1317 27.5687 10.1246 27.6379 10.1371 27.705C10.1496 27.7721 10.1811 27.8343 10.228 27.884ZM9.18812 24.8023C9.18812 24.7305 9.17405 24.6594 9.14672 24.5931C9.11939 24.5268 9.07933 24.4666 9.02882 24.4158C8.97832 24.365 8.91837 24.3248 8.85239 24.2973C8.7864 24.2698 8.71568 24.2557 8.64426 24.2557H2.63661C2.56519 24.2557 2.49447 24.2698 2.42849 24.2973C2.3625 24.3248 2.30255 24.365 2.25205 24.4158C2.20155 24.4666 2.16149 24.5268 2.13415 24.5931C2.10682 24.6594 2.09276 24.7305 2.09276 24.8023V26.8497C2.09276 26.9946 2.15005 27.1337 2.25205 27.2362C2.35404 27.3387 2.49237 27.3963 2.63661 27.3963H8.64426C8.7885 27.3963 8.92683 27.3387 9.02882 27.2362C9.13082 27.1337 9.18812 26.9946 9.18812 26.8497V24.8023ZM9.62293 29.0641C9.62293 28.9138 9.56353 28.7697 9.4578 28.6634C9.35207 28.5572 9.20866 28.4975 9.05913 28.4975H2.65522C2.5057 28.4975 2.36229 28.5572 2.25656 28.6634C2.15083 28.7697 2.09143 28.9138 2.09143 29.0641V31.2718C2.09143 31.4221 2.15083 31.5662 2.25656 31.6725C2.36229 31.7788 2.5057 31.8385 2.65522 31.8385H9.05913C9.20866 31.8385 9.35207 31.7788 9.4578 31.6725C9.56353 31.5662 9.62293 31.4221 9.62293 31.2718V29.0641Z" fill="white"/>
<path d="M59.4414 23.2281C59.4414 23.2075 59.4495 23.1878 59.464 23.1733C59.4785 23.1587 59.4981 23.1506 59.5185 23.1506L67.3652 23.1372C67.848 23.1365 68.3113 23.3307 68.6531 23.6771C68.995 24.0234 69.1875 24.4936 69.1882 24.9841L69.1989 31.0915C69.1992 31.3344 69.1525 31.575 69.0613 31.7995C68.9702 32.0241 68.8364 32.2281 68.6676 32.4001C68.4988 32.5721 68.2983 32.7087 68.0776 32.802C67.8568 32.8952 67.6202 32.9434 67.3811 32.9438L59.5345 32.9571C59.5244 32.9571 59.5143 32.9551 59.505 32.9512C59.4956 32.9473 59.4871 32.9416 59.48 32.9344C59.4728 32.9272 59.4671 32.9187 59.4632 32.9093C59.4594 32.8999 59.4574 32.8898 59.4574 32.8796L59.4414 23.2281ZM68.0763 24.8225C68.0762 24.7472 68.0613 24.6727 68.0325 24.6032C68.0037 24.5337 67.9616 24.4705 67.9085 24.4174C67.8554 24.3642 67.7925 24.3221 67.7232 24.2934C67.654 24.2647 67.5798 24.25 67.5049 24.2502L61.1089 24.2614C61.034 24.2615 60.9599 24.2765 60.8907 24.3054C60.8216 24.3344 60.7587 24.3767 60.7059 24.43C60.653 24.4834 60.6111 24.5466 60.5825 24.6162C60.554 24.6858 60.5394 24.7604 60.5395 24.8357L60.5507 31.2718C60.5508 31.3471 60.5657 31.4216 60.5945 31.4912C60.6233 31.5607 60.6654 31.6238 60.7185 31.6769C60.7715 31.7301 60.8345 31.7722 60.9037 31.8009C60.973 31.8296 61.0472 31.8443 61.1221 31.8441L67.518 31.8329C67.5929 31.8328 67.6671 31.8178 67.7363 31.7889C67.8054 31.76 67.8682 31.7176 67.9211 31.6643C67.974 31.611 68.0159 31.5477 68.0444 31.4781C68.073 31.4085 68.0876 31.3339 68.0875 31.2586L68.0763 24.8225Z" fill="white"/>
<path d="M13.1962 25.0576H12.175C12.1522 25.0576 12.1338 25.0762 12.1338 25.099V32.901C12.1338 32.9239 12.1522 32.9424 12.175 32.9424H13.1962C13.219 32.9424 13.2375 32.9239 13.2375 32.901V25.099C13.2375 25.0762 13.219 25.0576 13.1962 25.0576Z" fill="white"/>
<path d="M15.8345 31.197C15.8359 31.4402 15.9608 31.8064 16.2667 31.8064C18.4394 31.8064 20.5741 31.8064 22.6706 31.8064C22.6936 31.8064 22.7052 31.8184 22.7052 31.8425L22.7038 32.9103C22.7038 32.9343 22.6919 32.9464 22.6679 32.9464C20.8781 32.9357 18.9789 32.937 16.9701 32.9504C16.3318 32.9548 15.8837 32.8871 15.6258 32.7472C14.9755 32.3931 14.7122 31.8184 14.7202 31.0888C14.7344 29.7497 14.7331 28.4315 14.7162 27.1343C14.71 26.6274 14.7734 26.2443 14.9064 25.985C15.3013 25.2153 15.9223 25.0402 16.7573 25.0455C18.8973 25.0616 20.8555 25.0638 22.632 25.0522C22.6595 25.0522 22.6732 25.066 22.6732 25.0936L22.6759 26.1588C22.6759 26.168 22.6721 26.1768 22.6654 26.1833C22.6587 26.1898 22.6495 26.1935 22.64 26.1935H16.3544C16.216 26.1935 16.0831 26.2487 15.9849 26.3472C15.8867 26.4456 15.8312 26.5792 15.8305 26.7187C15.8252 28.3135 15.8265 29.8062 15.8345 31.197Z" fill="white"/>
<path d="M34.2496 26.4688C34.2141 26.5311 34.1964 26.5979 34.1964 26.6692L34.1977 31.3333C34.1977 31.4587 34.2472 31.5791 34.3352 31.6678C34.4233 31.7565 34.5426 31.8064 34.6671 31.8064H41.0272C41.037 31.8064 41.0465 31.8104 41.0535 31.8177C41.0605 31.825 41.0644 31.8348 41.0644 31.8451L41.0591 32.9062C41.0591 32.9329 41.0458 32.9463 41.0192 32.9463C39.4288 32.9365 37.487 32.9378 35.1937 32.9503C34.6565 32.953 34.2514 32.8813 33.9783 32.7352C33.2005 32.3195 33.0569 31.6393 33.0701 30.7974C33.0888 29.6721 33.0897 28.4832 33.0728 27.2305C33.0657 26.6683 33.1264 26.2616 33.255 26.0104C33.622 25.2927 34.1845 25.0468 34.9477 25.0508C36.952 25.0606 38.9692 25.062 40.9992 25.0548C41.0041 25.0548 41.009 25.0558 41.0135 25.0576C41.018 25.0594 41.0221 25.0621 41.0256 25.0654C41.029 25.0688 41.0318 25.0727 41.0336 25.0771C41.0355 25.0815 41.0365 25.0862 41.0365 25.0909L41.0418 26.152C41.0418 26.1788 41.0285 26.1921 41.0019 26.1921C38.7432 26.1939 36.6622 26.1939 34.7589 26.1921C34.5266 26.1912 34.3569 26.2834 34.2496 26.4688Z" fill="white"/>
<path d="M47.4513 29.6119L47.4552 31.3305C47.4556 31.4568 47.5056 31.5778 47.5944 31.667C47.6831 31.7562 47.8033 31.8063 47.9286 31.8063H54.286C54.2948 31.8063 54.3033 31.8098 54.3095 31.816C54.3157 31.8223 54.3192 31.8308 54.3192 31.8397V32.9061C54.3192 32.9112 54.3182 32.9162 54.3163 32.9209C54.3144 32.9256 54.3115 32.9299 54.3079 32.9335C54.3044 32.9371 54.3001 32.94 54.2954 32.9419C54.2908 32.9439 54.2857 32.9449 54.2807 32.9449C52.435 32.9377 50.4728 32.9391 48.394 32.9489C47.9171 32.9516 47.543 32.8861 47.2717 32.7524C46.6042 32.421 46.333 31.8116 46.337 31.0899C46.3432 29.6511 46.3436 28.2657 46.3383 26.9337C46.3343 25.767 47.0364 25.0333 48.2012 25.0494C49.4051 25.0663 50.7144 25.0659 52.1292 25.048C53.1119 25.036 53.7501 25.175 54.1637 26.045C54.2789 26.2873 54.333 26.6263 54.3259 27.062C54.3126 27.9414 54.3126 28.7392 54.3259 29.4555C54.3268 29.5081 54.3015 29.5344 54.2501 29.5344H47.5271C47.4765 29.5344 47.4513 29.5602 47.4513 29.6119ZM47.4539 28.3837C47.4539 28.3965 47.459 28.4087 47.4679 28.4177C47.4769 28.4268 47.4891 28.4318 47.5018 28.4318H53.0972C53.1504 28.4318 53.1783 28.4051 53.181 28.3516C53.197 27.965 53.2045 27.5609 53.2036 27.1395C53.2036 26.6544 53.2182 26.1947 52.6584 26.1947C51.1106 26.1929 49.5425 26.1929 47.9539 26.1947C47.8882 26.1947 47.8232 26.2077 47.7626 26.2329C47.7019 26.2582 47.6468 26.2952 47.6004 26.3419C47.5539 26.3885 47.5171 26.4439 47.492 26.5049C47.4669 26.5658 47.4539 26.6312 47.4539 26.6972V28.3837Z" fill="white"/>
<path d="M71.7274 29.6242L71.7301 31.3348C71.7304 31.46 71.78 31.58 71.868 31.6684C71.956 31.7569 72.0752 31.8065 72.1994 31.8065H78.5568C78.5667 31.8065 78.5762 31.8105 78.5831 31.8175C78.5901 31.8245 78.594 31.834 78.594 31.8439L78.5967 32.9064C78.5967 32.9116 78.5957 32.9169 78.5937 32.9217C78.5917 32.9266 78.5887 32.931 78.585 32.9347C78.5813 32.9385 78.5769 32.9414 78.5721 32.9434C78.5672 32.9454 78.5621 32.9465 78.5568 32.9465C76.6855 32.9376 74.7503 32.9389 72.7513 32.9505C72.199 32.954 71.7996 32.8912 71.5532 32.762C70.7421 32.3384 70.5865 31.6528 70.6038 30.8082C70.6251 29.6945 70.6259 28.5778 70.6064 27.4579C70.594 26.7816 70.6423 26.3241 70.7514 26.0854C71.1224 25.2728 71.7367 25.0403 72.5718 25.0497C73.9059 25.0657 75.2494 25.0657 76.6021 25.0497C77.0551 25.0443 77.4066 25.1031 77.6566 25.2261C78.294 25.5414 78.6087 26.1165 78.6007 26.9514C78.5927 27.8147 78.5914 28.6499 78.5967 29.4571C78.5967 29.5088 78.571 29.5346 78.5196 29.5346H71.8152C71.7566 29.5346 71.7274 29.5645 71.7274 29.6242ZM71.7753 28.4267L77.4266 28.4374C77.4407 28.4374 77.4542 28.4318 77.4642 28.4218C77.4741 28.4118 77.4797 28.3982 77.4797 28.384L77.4824 26.7589C77.4826 26.6848 77.4669 26.6113 77.4364 26.5427C77.4059 26.4742 77.361 26.4118 77.3045 26.3593C77.2479 26.3068 77.1807 26.2652 77.1067 26.2367C77.0328 26.2083 76.9535 26.1936 76.8734 26.1936L72.3337 26.1856C72.1724 26.1856 72.0177 26.2448 71.9036 26.3502C71.7894 26.4557 71.7251 26.5989 71.7247 26.7482L71.7221 28.3733C71.7221 28.3875 71.7277 28.4011 71.7377 28.4111C71.7476 28.4211 71.7612 28.4267 71.7753 28.4267Z" fill="white"/>
<path d="M87.9544 25.0575L89.1445 25.0562C89.1526 25.0563 89.1604 25.0585 89.1674 25.0626C89.1743 25.0667 89.18 25.0725 89.184 25.0795C89.1881 25.0865 89.1902 25.0945 89.1903 25.1025C89.1903 25.1106 89.1883 25.1186 89.1844 25.1256L84.9027 32.9182C84.8987 32.9256 84.8927 32.9317 84.8854 32.936C84.8782 32.9402 84.8699 32.9424 84.8615 32.9423L83.6342 32.9409C83.6258 32.941 83.6175 32.9389 83.6103 32.9346C83.603 32.9304 83.597 32.9243 83.593 32.9169L79.3232 25.1256C79.3193 25.1186 79.3173 25.1106 79.3174 25.1025C79.3174 25.0945 79.3196 25.0865 79.3236 25.0795C79.3276 25.0725 79.3334 25.0667 79.3403 25.0626C79.3472 25.0585 79.3551 25.0563 79.3631 25.0562L80.5546 25.0575C80.563 25.0574 80.5712 25.0596 80.5785 25.0638C80.5857 25.068 80.5917 25.0742 80.5958 25.0815L84.2139 31.7649C84.2179 31.7725 84.2238 31.7788 84.2311 31.7832C84.2383 31.7876 84.2467 31.79 84.2552 31.79C84.2637 31.79 84.272 31.7876 84.2792 31.7832C84.2865 31.7788 84.2924 31.7725 84.2964 31.7649L87.9132 25.0815C87.9173 25.0742 87.9233 25.068 87.9305 25.0638C87.9378 25.0596 87.946 25.0574 87.9544 25.0575Z" fill="white"/>
<path d="M30.7549 32.9426C29.0653 32.9435 27.428 32.9426 25.843 32.9399C24.6994 32.9386 23.984 32.2543 23.9854 31.1424C23.9889 29.0977 23.9898 27.0945 23.988 25.1326C23.988 25.1213 23.9925 25.1104 24.0005 25.1024C24.0085 25.0943 24.0193 25.0898 24.0306 25.0898L25.0651 25.0925C25.0735 25.0925 25.0817 25.0959 25.0876 25.1019C25.0936 25.1079 25.097 25.1161 25.097 25.1246V31.3215C25.097 31.4502 25.1478 31.5736 25.2384 31.6645C25.3289 31.7555 25.4517 31.8066 25.5797 31.8066H30.348C30.4133 31.8066 30.478 31.7937 30.5384 31.7686C30.5987 31.7435 30.6535 31.7066 30.6997 31.6602C30.7459 31.6138 30.7825 31.5587 30.8075 31.4981C30.8325 31.4374 30.8454 31.3724 30.8454 31.3068L30.8467 25.1259C30.8467 25.1028 30.8582 25.0912 30.8813 25.0912H31.9144C31.9322 25.0912 31.941 25.1001 31.941 25.1179C31.9526 28.2353 31.9543 31.3202 31.9464 34.3725C31.9437 35.0447 31.5328 35.7343 30.9172 35.9428C30.6734 36.0248 30.3245 36.064 29.8707 36.0604C28.2989 36.047 26.8336 36.0439 25.4746 36.051C25.4454 36.0519 25.4308 36.0377 25.4308 36.0083L25.4321 34.9472C25.4321 34.9249 25.4427 34.9138 25.464 34.9138H30.4797C30.5198 34.9137 30.5583 34.8984 30.5874 34.871C30.7744 34.7017 30.8609 34.4915 30.8467 34.2402C30.8254 33.8446 30.848 33.433 30.848 33.0361C30.848 32.9737 30.817 32.9426 30.7549 32.9426Z" fill="white"/>
</svg>
