<svg width="246" height="53" viewBox="0 0 246 53" fill="none" xmlns="http://www.w3.org/2000/svg">
<g clip-path="url(#clip0_114_709)">
<path d="M245.962 23.8325V19.5066H240.59V12.7821L240.409 12.8373L235.364 14.3813L235.265 14.4116V19.5066H227.301V16.6684C227.301 15.3469 227.597 14.3352 228.18 13.6612C228.758 12.9944 229.585 12.6558 230.64 12.6558C231.399 12.6558 232.184 12.8345 232.975 13.1866L233.173 13.275V8.71995L233.079 8.68632C232.342 8.42066 231.339 8.2876 230.096 8.2876C228.529 8.2876 227.106 8.62819 225.864 9.3041C224.64 9.96216 223.632 10.9588 222.96 12.1749C222.278 13.4018 221.932 14.8185 221.932 16.3864V19.507H218.192V23.8329H221.932V42.0555H227.301V23.8325H235.265V35.4127C235.265 40.182 237.514 42.5993 241.951 42.5993C242.718 42.5948 243.482 42.5098 244.231 42.3456C245.028 42.1741 245.571 42.0026 245.891 41.8196L245.962 41.7778V37.412L245.743 37.5566C245.452 37.7512 245.089 37.9097 244.664 38.0274C244.236 38.1475 243.879 38.208 243.603 38.208C242.563 38.208 241.795 37.928 241.317 37.3751C240.835 36.8178 240.59 35.8421 240.59 34.4778V23.8325H245.962ZM206.201 38.2085C204.252 38.2085 202.716 37.5619 201.632 36.2894C200.543 35.0096 199.991 33.1861 199.991 30.8682C199.991 28.4773 200.543 26.6062 201.633 25.3039C202.717 24.0107 204.238 23.354 206.157 23.354C208.019 23.354 209.501 23.9809 210.562 25.2189C211.629 26.4626 212.171 28.3188 212.171 30.7375C212.171 33.1861 211.661 35.0673 210.657 36.3254C209.661 37.5744 208.161 38.2085 206.201 38.2085ZM206.44 18.9632C202.722 18.9632 199.768 20.0528 197.663 22.2015C195.559 24.3508 194.492 27.3244 194.492 31.0416C194.492 34.572 195.533 37.4116 197.588 39.4806C199.642 41.5501 202.437 42.5983 205.896 42.5983C209.5 42.5983 212.394 41.4939 214.5 39.3153C216.604 37.1392 217.67 34.1935 217.67 30.5627C217.67 26.9776 216.669 24.1168 214.696 22.0617C212.72 20.0057 209.942 18.9632 206.44 18.9632ZM185.834 18.9632C183.305 18.9632 181.213 19.6103 179.615 20.8858C178.007 22.1689 177.192 23.8522 177.192 25.8885C177.192 26.9468 177.368 27.8869 177.714 28.6844C178.063 29.4847 178.602 30.1889 179.319 30.7803C180.03 31.3669 181.127 31.9813 182.583 32.6058C183.805 33.1092 184.717 33.5353 185.297 33.8706C185.863 34.1997 186.265 34.5302 186.492 34.8521C186.712 35.1667 186.824 35.5981 186.824 36.1299C186.824 37.645 185.69 38.382 183.356 38.382C182.49 38.382 181.502 38.2013 180.42 37.8449C179.346 37.4937 178.333 36.9796 177.415 36.3206L177.192 36.1611V41.3301L177.273 41.3685C178.033 41.7192 178.991 42.0146 180.12 42.2476C181.247 42.4801 182.27 42.5988 183.16 42.5988C185.904 42.5988 188.115 41.9488 189.727 40.6657C191.351 39.3735 192.173 37.6513 192.173 35.5438C192.173 34.0244 191.73 32.7206 190.857 31.6695C189.991 30.6271 188.486 29.6696 186.388 28.8237C184.716 28.1526 183.645 27.5958 183.203 27.1683C182.777 26.7551 182.561 26.171 182.561 25.4317C182.561 24.7755 182.828 24.2504 183.376 23.8248C183.929 23.3972 184.697 23.1796 185.661 23.1796C186.556 23.1796 187.471 23.3208 188.381 23.5975C189.291 23.8747 190.09 24.2461 190.757 24.6996L190.976 24.8494V19.9456L190.892 19.9096C190.277 19.6454 189.465 19.4196 188.48 19.2371C187.498 19.0555 186.608 18.9632 185.834 18.9632ZM163.194 38.2085C161.245 38.2085 159.708 37.5619 158.626 36.2894C157.536 35.0096 156.985 33.1861 156.985 30.8682C156.985 28.4773 157.537 26.6062 158.627 25.3039C159.709 24.0107 161.231 23.354 163.15 23.354C165.012 23.354 166.494 23.9809 167.556 25.2189C168.623 26.4626 169.164 28.3188 169.164 30.7375C169.164 33.1861 168.655 35.0673 167.651 36.3254C166.653 37.5744 165.155 38.2085 163.194 38.2085ZM163.433 18.9632C159.714 18.9632 156.761 20.0528 154.657 22.2015C152.553 24.3508 151.485 27.3244 151.485 31.0416C151.485 34.5734 152.527 37.4116 154.581 39.4806C156.635 41.5501 159.43 42.5983 162.89 42.5983C166.492 42.5983 169.388 41.4939 171.493 39.3153C173.597 37.1392 174.664 34.1935 174.664 30.5627C174.664 26.9776 173.663 24.1168 171.688 22.0617C169.713 20.0057 166.935 18.9632 163.433 18.9632ZM143.334 23.4116V19.5066H138.03V42.0545H143.334V30.5199C143.334 28.5585 143.778 26.9473 144.656 25.7305C145.522 24.5281 146.677 23.9184 148.086 23.9184C148.564 23.9184 149.1 23.9972 149.681 24.1534C150.256 24.308 150.672 24.4762 150.918 24.653L151.141 24.8148V19.4681L151.054 19.4311C150.561 19.2212 149.862 19.1155 148.978 19.1155C147.645 19.1155 146.452 19.5436 145.431 20.3866C144.534 21.1279 143.885 22.1444 143.39 23.4116H143.334ZM128.532 18.9632C126.099 18.9632 123.928 19.4854 122.082 20.5139C120.232 21.5444 118.801 23.0168 117.828 24.8879C116.859 26.7551 116.367 28.9361 116.367 31.3683C116.367 33.4983 116.844 35.4535 117.786 37.1762C118.73 38.9022 120.065 40.2526 121.755 41.1893C123.444 42.1247 125.394 42.5988 127.554 42.5988C130.074 42.5988 132.226 42.0949 133.952 41.1014L134.022 41.0611V36.202L133.799 36.3648C133.005 36.9402 132.131 37.3953 131.204 37.7157C130.266 38.0428 129.412 38.208 128.663 38.208C126.581 38.208 124.911 37.5571 123.698 36.2735C122.483 34.9875 121.866 33.1827 121.866 30.911C121.866 28.6253 122.509 26.7739 123.775 25.4072C125.038 24.0453 126.712 23.3545 128.75 23.3545C130.494 23.3545 132.192 23.9449 133.799 25.1108L134.022 25.2722V20.1522L133.95 20.1119C133.345 19.7732 132.52 19.4936 131.496 19.2817C130.477 19.0704 129.48 18.9632 128.532 18.9632ZM112.714 19.5066H107.41V42.0545H112.714V19.5066ZM110.116 9.90122C109.243 9.90122 108.482 10.1986 107.856 10.7871C107.228 11.3779 106.909 12.1216 106.909 12.9988C106.909 13.8625 107.224 14.5922 107.846 15.1672C108.464 15.7403 109.228 16.031 110.116 16.031C111.004 16.031 111.771 15.7403 112.396 15.1682C113.025 14.5922 113.345 13.8625 113.345 12.9988C113.345 12.1523 113.034 11.4159 112.422 10.8111C111.81 10.2072 111.034 9.90122 110.116 9.90122ZM96.8824 17.8435V42.054H102.295V10.5915H94.8038L85.2811 33.9609L76.0403 10.5915H68.2437V42.0545H73.3305V17.8411H73.5053L83.2634 42.0545H87.1017L96.7076 17.843L96.8824 17.8435Z" fill="#4A86FF" fill-opacity="0.64"/>
<path d="M24.9543 25.0295H0.00341797V0.0786133H24.9543V25.0295Z" fill="#4A86FF" fill-opacity="0.64"/>
<path d="M52.505 25.0295H27.5542V0.0786133H52.505V25.0295Z" fill="#4A86FF" fill-opacity="0.64"/>
<path d="M24.9538 52.589H0.00341797V27.6382H24.9538V52.589Z" fill="#4A86FF" fill-opacity="0.64"/>
<path d="M52.505 52.589H27.5542V27.6382H52.505V52.589Z" fill="#4A86FF" fill-opacity="0.64"/>
</g>
<defs>
<clipPath id="clip0_114_709">
<rect width="245.958" height="52.8426" fill="white" transform="translate(0.00341797 0.0786133)"/>
</clipPath>
</defs>
</svg>
