<svg width="172" height="57" viewBox="0 0 172 57" fill="none" xmlns="http://www.w3.org/2000/svg">
<g clip-path="url(#clip0_114_715)">
<path d="M166.533 34.7314L171.274 37.8919C169.735 40.1582 166.055 44.0467 159.692 44.0467C151.791 44.0467 145.907 37.9336 145.907 30.157C145.907 21.8817 151.854 16.2676 159.027 16.2676C166.242 16.2676 169.777 22.0062 170.921 25.1043L171.545 26.6847L152.956 34.3779C154.37 37.1643 156.574 38.5781 159.692 38.5781C162.812 38.5781 164.974 37.0394 166.533 34.7314ZM151.958 29.7207L164.371 24.5639C163.685 22.8383 161.647 21.6117 159.214 21.6117C156.116 21.6117 151.812 24.3563 151.958 29.7207Z" fill="#4A86FF" fill-opacity="0.64"/>
<path d="M136.944 2.10873H142.932V42.7793H136.944V2.1084V2.10873Z" fill="#4A86FF" fill-opacity="0.64"/>
<path d="M127.504 17.3489H133.284V42.0506C133.284 52.3012 127.233 56.5221 120.08 56.5221C113.344 56.5221 109.289 51.9894 107.771 48.3092L113.073 46.105C114.03 48.3713 116.338 51.0539 120.08 51.0539C124.675 51.0539 127.504 48.2051 127.504 42.8824V40.8864H127.296C125.923 42.5496 123.303 44.0466 119.977 44.0466C113.032 44.0466 106.669 37.9959 106.669 30.1989C106.669 22.3598 113.032 16.2471 119.977 16.2471C123.283 16.2471 125.923 17.7234 127.296 19.3452H127.504V17.3492V17.3489ZM127.919 30.1989C127.919 25.2917 124.655 21.7153 120.496 21.7153C116.296 21.7153 112.761 25.2917 112.761 30.1989C112.761 35.0433 116.296 38.5573 120.496 38.5573C124.655 38.5783 127.919 35.0433 127.919 30.1989H127.919Z" fill="#4A86FF" fill-opacity="0.64"/>
<path d="M73.7974 30.0956C73.7974 38.1009 67.5598 43.9851 59.908 43.9851C52.2565 43.9851 46.0186 38.0802 46.0186 30.0956C46.0186 22.049 52.2565 16.1855 59.908 16.1855C67.5598 16.1855 73.7974 22.049 73.7974 30.0956ZM67.726 30.0956C67.726 25.1057 64.1079 21.6745 59.908 21.6745C55.7081 21.6745 52.0899 25.1057 52.0899 30.0956C52.0899 35.0442 55.7081 38.5168 59.908 38.5168C64.1082 38.5168 67.726 35.0442 67.726 30.0956Z" fill="#4A86FF" fill-opacity="0.64"/>
<path d="M104.133 30.157C104.133 38.1623 97.8954 44.0464 90.2439 44.0464C82.5921 44.0464 76.3545 38.1619 76.3545 30.157C76.3545 22.1103 82.5921 16.2676 90.2439 16.2676C97.8954 16.2676 104.133 22.0896 104.133 30.157ZM98.0409 30.157C98.0409 25.167 94.4231 21.7358 90.2229 21.7358C86.023 21.7358 82.4048 25.167 82.4048 30.157C82.4048 35.1055 86.023 38.5781 90.2229 38.5781C94.4438 38.5781 98.0409 35.0849 98.0409 30.157Z" fill="#4A86FF" fill-opacity="0.64"/>
<path d="M23.1878 37.9541C14.4755 37.9541 7.65584 30.9261 7.65584 22.2139C7.65584 13.502 14.4755 6.47404 23.1878 6.47404C27.887 6.47404 31.3175 8.32449 33.8542 10.695L38.0338 6.51576C34.4991 3.1266 29.7792 0.547852 23.1878 0.547852C11.2529 0.548185 1.20996 10.2794 1.20996 22.2139C1.20996 34.1491 11.2529 43.88 23.1878 43.88C29.6336 43.88 34.4991 41.7591 38.3041 37.8086C42.213 33.8994 43.4189 28.4101 43.4189 23.9605C43.4189 22.5674 43.2527 21.1328 43.0654 20.0724H23.1878V25.8527H37.3475C36.9316 29.4709 35.7881 31.9451 34.1039 33.629C32.0662 35.6878 28.8436 37.9541 23.1878 37.9541Z" fill="#4A86FF" fill-opacity="0.64"/>
</g>
<defs>
<clipPath id="clip0_114_715">
<rect width="170.893" height="56.0743" fill="white" transform="translate(0.961914 0.462891)"/>
</clipPath>
</defs>
</svg>
