<svg width="122" height="27" viewBox="0 0 122 27" fill="none" xmlns="http://www.w3.org/2000/svg">
<path d="M91.5225 0.966934L91.8577 20.5979H91.6901L86.0063 0.974224H76.6572V25.6914H82.8365L82.5013 5.39738H82.6689L88.7608 25.6914H97.7018V0.974224L91.5225 0.966934ZM-26.1612 0.966934L-30.8321 25.9465H-24.0699L-20.645 3.22588H-20.4774L-17.1327 25.9465H-10.4579L-15.0487 0.974224L-26.1612 0.966934ZM11.5923 0.966934L8.50266 20.0149H8.33506L5.24541 0.974224H-4.93441L-5.43721 25.9465H0.829536L0.997139 3.48092H1.0773L5.2527 25.9465H11.5996L15.775 3.48092H15.9426L16.1102 25.9465H22.377L21.794 0.974224L11.5923 0.966934ZM-41.3544 18.849C-41.1645 19.443 -41.1368 20.077 -41.2743 20.6853C-41.4419 21.516 -42.0248 22.354 -43.6935 22.354C-45.2821 22.354 -46.2002 21.4359 -46.2002 20.0951V17.6758H-52.8823V19.5996C-52.8823 25.1959 -48.4592 26.8646 -43.7737 26.8646C-39.2704 26.8646 -35.5103 25.2761 -34.9274 21.1808C-34.5922 19.0093 -34.8399 17.5957 -34.9274 17.0929C-36.0933 11.8317 -45.6173 10.3233 -46.2877 7.40128C-46.3711 6.96069 -46.3711 6.50837 -46.2877 6.06777C-46.1201 5.22978 -45.5298 4.39179 -44.0287 4.39179C-42.5276 4.39179 -41.6969 5.31723 -41.6969 6.65073V8.15183H-35.4302V6.40298C-35.4302 0.974223 -40.3561 0.13623 -43.8611 0.13623C-48.2916 0.13623 -51.9642 1.63734 -52.6346 5.65243C-52.8539 6.75756 -52.824 7.89769 -52.5471 8.98983C-51.5488 14.1635 -42.6078 15.6719 -41.3544 18.8417M39.9093 18.8417C40.157 19.4247 40.0696 20.1825 39.9894 20.6853C39.8218 21.516 39.2389 22.354 37.5702 22.354C35.9816 22.354 35.0635 21.4359 35.0635 20.0951V17.6758H28.3814V19.5996C28.3814 25.1085 32.7244 26.7772 37.4026 26.7772C41.9132 26.7772 45.5858 25.2761 46.1687 21.1007C46.5039 18.9292 46.2562 17.5957 46.1687 17.0054C45.1704 11.8317 35.7266 10.2432 35.0635 7.40128C34.9794 6.96076 34.9794 6.5083 35.0635 6.06777C35.2311 5.22978 35.814 4.39179 37.3224 4.39179C38.7361 4.39179 39.6542 5.31723 39.6542 6.65073V8.15183H45.8335V6.40298C45.8335 0.974223 40.9877 0.13623 37.4827 0.13623C33.0596 0.13623 29.4671 1.55718 28.7967 5.65243C28.6291 6.73818 28.6291 7.73648 28.8842 8.98983C29.8825 14.1635 38.6486 15.5845 39.9093 18.8417ZM60.9539 22.1864C62.7027 22.1864 63.2128 21.0205 63.3731 20.3501C63.4606 20.0951 63.4606 19.6797 63.4606 19.432V0.966934H69.8002V18.9219C69.8002 19.4247 69.8002 20.3428 69.7273 20.5979C69.3047 25.2688 65.6321 26.7699 61.034 26.7699C56.4433 26.7699 52.7707 25.2688 52.348 20.5906C52.348 20.3428 52.2679 19.4247 52.2679 18.9219V0.966934H58.6075V19.4247C58.6075 19.7599 58.6075 20.0878 58.6949 20.3428C58.6949 21.006 59.205 22.1792 60.9539 22.1792M113.07 21.9314C114.906 21.9314 115.489 20.7655 115.657 20.0878C115.737 19.8401 115.737 19.4247 115.737 19.1697V15.5772H113.15V11.9046H122.004V18.5867C122.004 19.0895 122.004 19.4247 121.924 20.2627C121.501 24.8535 117.573 26.4347 113.15 26.4347C108.727 26.4347 104.799 24.8534 104.384 20.2554C104.296 19.4247 104.296 19.0895 104.296 18.5867V8.06439C104.296 7.64904 104.384 6.81104 104.384 6.3884C104.967 1.71749 108.727 0.216384 113.15 0.216384C117.573 0.216384 121.421 1.71749 121.916 6.39569C122.004 7.14624 122.004 8.06439 122.004 8.06439V8.90239H115.737V7.48144C115.737 7.48144 115.737 6.89849 115.657 6.56329C115.569 5.98034 115.074 4.72698 113.15 4.72698C111.314 4.72698 110.818 5.89289 110.643 6.56329C110.563 6.8912 110.563 7.31384 110.563 7.7292V19.1697C110.563 19.5049 110.563 19.8401 110.643 20.0878C110.643 20.7582 111.314 21.9314 113.07 21.9314Z" fill="#4A86FF" fill-opacity="0.64"/>
</svg>
