<svg width="101" height="101" viewBox="0 0 101 101" fill="none" xmlns="http://www.w3.org/2000/svg">
<g clip-path="url(#clip0_114_723)">
<path d="M22.5008 28.3379C16.6232 28.3379 10.9864 30.6727 6.83028 34.8288C2.67421 38.9849 0.339355 44.6217 0.339355 50.4993C0.339355 56.3769 2.67421 62.0137 6.83028 66.1698C10.9864 70.3259 16.6232 72.6607 22.5008 72.6607C28.3037 72.5478 33.8308 70.1634 37.8948 66.0196C41.9588 61.8758 44.2353 56.3033 44.2353 50.4993C44.2353 44.6953 41.9588 39.1228 37.8948 34.979C33.8308 30.8352 28.3037 28.4508 22.5008 28.3379ZM22.5008 31.9434C22.7104 31.9434 23.1548 31.9434 23.3812 31.9518V33.6833C23.0877 33.677 22.7943 33.6728 22.5008 33.6707C20.2917 33.6652 18.1034 34.0977 16.0626 34.9433C14.0217 35.7888 12.1688 37.0306 10.6109 38.5969C9.04394 40.1542 7.80164 42.007 6.95603 44.048C6.11042 46.089 5.67832 48.2775 5.68476 50.4867C5.68476 54.9811 7.43302 59.2071 10.6109 62.3766C12.1688 63.9428 14.0217 65.1846 16.0626 66.0302C18.1034 66.8757 20.2917 67.3082 22.5008 67.3027C26.7635 67.2949 30.8649 65.6725 33.979 62.7623C37.0931 59.852 38.9884 55.8702 39.2832 51.6187V51.3671H27.8042V49.6482H40.302L41.0441 49.644V50.4867C41.0518 52.9227 40.5763 55.3361 39.6451 57.5871C38.7139 59.8382 37.3455 61.8821 35.619 63.6008C33.8992 65.3286 31.8541 66.6984 29.6017 67.631C27.3493 68.5637 24.9344 69.0406 22.4966 69.0342C17.5495 69.0342 12.8958 67.1057 9.37413 63.6008C7.64845 61.8818 6.2808 59.8377 5.35032 57.5867C4.41983 55.3356 3.94499 52.9225 3.95327 50.4867C3.95881 45.5689 5.91457 40.8541 9.39158 37.3763C12.8686 33.8985 17.583 31.9417 22.5008 31.935V31.9434ZM89.8445 35.6244C80.5791 35.6244 75.7074 40.6847 75.7074 50.3316C75.7074 59.9324 80.1095 65.131 89.7942 65.131C94.2382 65.131 98.5942 63.9991 100.959 62.343V48.4408H89.4713V53.782H94.8587V58.792C93.865 59.1693 91.9239 59.5508 90.0792 59.5508C84.1259 59.5508 82.1387 56.5239 82.1387 50.3777C82.1387 44.5166 84.0253 41.062 89.987 41.062C93.2991 41.062 95.1857 42.1018 96.7495 44.089L100.866 40.3074C98.3594 36.7145 93.9615 35.6244 89.8403 35.6244H89.8445ZM54.5732 36.052V64.7034H74.9067V59.1274H61.1973V36.0478L54.5732 36.052ZM15.4239 40.7602C16.1299 40.7602 16.8071 41.0407 17.3063 41.5399C17.8056 42.0392 18.0861 42.7163 18.0861 43.4224C18.0861 44.1285 17.8056 44.8056 17.3063 45.3049C16.8071 45.8041 16.1299 46.0846 15.4239 46.0846C14.7178 46.0846 14.0407 45.8041 13.5414 45.3049C13.0421 44.8056 12.7617 44.1285 12.7617 43.4224C12.7617 42.7163 13.0421 42.0392 13.5414 41.5399C14.0407 41.0407 14.7178 40.7602 15.4239 40.7602ZM21.6203 40.7686H23.3812V58.4608H27.7917V60.1965H21.6203V40.7686Z" fill="#4A86FF" fill-opacity="0.64"/>
</g>
<defs>
<clipPath id="clip0_114_723">
<rect width="100.619" height="100.619" fill="white" transform="translate(0.341309 0.19043)"/>
</clipPath>
</defs>
</svg>
