<svg width="180" height="47" viewBox="0 0 180 47" fill="none" xmlns="http://www.w3.org/2000/svg">
<path d="M57.9499 36.5149L60.1828 31.3206C62.5939 33.1249 65.7916 34.0615 68.954 34.0615C71.2963 34.0615 72.7638 33.1602 72.7638 31.788C72.7285 27.9712 58.7771 30.9608 58.6748 21.3712C58.6395 16.5067 62.9519 12.7517 69.0634 12.7517C72.695 12.7517 76.3248 13.6547 78.9158 15.7148L76.8293 21.0132C74.4588 19.4963 71.5097 18.4151 68.7053 18.4151C66.7969 18.4151 65.5429 19.3182 65.5429 20.4681C65.5782 24.2161 79.6319 22.1631 79.7765 31.3206C79.7765 36.2944 75.5752 39.7937 69.5326 39.7937C65.109 39.7937 61.0435 38.7496 57.9499 36.5149ZM143.493 29.4457C142.796 30.6886 141.706 31.6648 140.394 32.2213C139.082 32.7778 137.623 32.8829 136.245 32.5203C134.867 32.1576 133.648 31.3477 132.78 30.2175C131.913 29.0874 131.444 27.7011 131.45 26.2762C131.447 25.4295 131.612 24.5906 131.934 23.8076C132.257 23.0246 132.73 22.3129 133.328 21.7133C133.926 21.1136 134.636 20.6378 135.418 20.3131C136.2 19.9883 137.039 19.8211 137.886 19.8208C140.29 19.8208 142.378 21.1578 143.494 23.1014L149.639 19.6762C147.338 15.5702 142.914 12.7517 137.886 12.7517C130.437 12.7517 124.402 18.8155 124.402 26.2762C124.402 33.737 130.437 39.7937 137.886 39.7937C140.286 39.7989 142.643 39.1589 144.711 37.9407C146.778 36.7225 148.481 34.9709 149.639 32.8692L143.493 29.4457ZM82.8702 1.54116H90.5672V39.2911H82.8702V1.54116ZM152.664 1.54116V39.2911H160.352V27.9712L169.489 39.2911H179.341L167.725 25.8424L178.479 13.2967H169.055L160.352 23.7135V1.54293H152.662L152.664 1.54116ZM113.433 29.5216C112.318 31.3612 110.016 32.7246 107.425 32.7246C106.579 32.7241 105.742 32.5569 104.96 32.2325C104.179 31.9081 103.469 31.4329 102.872 30.834C102.274 30.2351 101.8 29.5243 101.478 28.7423C101.155 27.9602 100.99 27.1222 100.991 26.2762C100.989 25.4298 101.155 24.5914 101.477 23.8088C101.8 23.0263 102.273 22.3149 102.871 21.7155C103.468 21.116 104.178 20.6401 104.96 20.315C105.741 19.9899 106.579 19.822 107.425 19.8208C110.016 19.8208 112.318 21.2601 113.433 23.135V29.5216ZM113.433 13.2949V16.3639C112.173 14.2332 109.044 12.7517 105.773 12.7517C99.0139 12.7517 93.6944 18.7397 93.6944 26.2357C93.6944 33.7387 99.0139 39.7937 105.773 39.7937C109.044 39.7937 112.173 38.3122 113.433 36.1904V39.2575H121.13V13.2949H113.433ZM10.3846 29.4792C10.3846 32.1125 8.26282 34.2414 5.63657 34.2414C5.01207 34.2409 4.39379 34.1173 3.81712 33.8777C3.24044 33.638 2.71669 33.2869 2.27584 32.8446C1.83499 32.4023 1.4857 31.8774 1.24794 31.2999C1.01019 30.7224 0.888648 30.1037 0.890271 29.4792C0.889111 28.8553 1.01103 28.2372 1.24906 27.6605C1.48709 27.0837 1.83654 26.5595 2.27741 26.118C2.71829 25.6765 3.24192 25.3263 3.81833 25.0874C4.39475 24.8485 5.01262 24.7256 5.63657 24.7259H10.3846V29.4792ZM12.7534 29.4792C12.7522 28.8551 12.8742 28.2369 13.1123 27.6601C13.3505 27.0832 13.7001 26.5589 14.1411 26.1174C14.5822 25.6758 15.106 25.3256 15.6827 25.0869C16.2593 24.8481 16.8773 24.7254 17.5014 24.7259C18.1255 24.7256 18.7435 24.8485 19.3201 25.0875C19.8966 25.3265 20.4203 25.6769 20.8612 26.1186C21.3021 26.5604 21.6515 27.0847 21.8894 27.6617C22.1274 28.2386 22.2491 28.8569 22.2477 29.481V41.3794C22.2491 42.0037 22.1274 42.6222 21.8895 43.1995C21.6517 43.7767 21.3024 44.3015 20.8615 44.7436C20.4207 45.1857 19.897 45.5366 19.3205 45.7762C18.7439 46.0158 18.1258 46.1393 17.5014 46.1398C16.8768 46.1395 16.2583 46.0161 15.6814 45.7765C15.1046 45.5369 14.5806 45.1859 14.1396 44.7436C13.6985 44.3012 13.3491 43.7763 13.1112 43.1987C12.8733 42.6211 12.7517 42.0023 12.7534 41.3776V29.4792ZM17.5014 10.3759C16.8768 10.3756 16.2583 10.2522 15.6814 10.0126C15.1046 9.77306 14.5806 9.42204 14.1396 8.97969C13.6985 8.53735 13.3491 8.01235 13.1112 7.43476C12.8733 6.85718 12.7517 6.23835 12.7534 5.6137C12.7522 4.9896 12.8742 4.37141 13.1123 3.79452C13.3505 3.21764 13.7001 2.69341 14.1411 2.25186C14.5822 1.81031 15.106 1.46011 15.6827 1.22134C16.2593 0.982558 16.8773 0.859888 17.5014 0.860353C18.1254 0.86012 18.7433 0.982958 19.3197 1.22184C19.8961 1.46072 20.4197 1.81096 20.8606 2.25249C21.3015 2.69401 21.6509 3.21817 21.8889 3.79493C22.127 4.3717 22.2489 4.98975 22.2477 5.6137V10.3759H17.5014ZM17.5014 12.794C18.1254 12.7938 18.7433 12.9166 19.3197 13.1555C19.8961 13.3944 20.4197 13.7446 20.8606 14.1861C21.3015 14.6277 21.6509 15.1518 21.8889 15.7286C22.127 16.3053 22.2489 16.9234 22.2477 17.5473C22.2477 20.1789 20.1259 22.3095 17.5014 22.3095H5.60306C4.97841 22.3093 4.35994 22.1859 3.78306 21.9463C3.20619 21.7067 2.68223 21.3557 2.24119 20.9133C1.80015 20.471 1.4507 19.946 1.21284 19.3684C0.974972 18.7908 0.853373 18.172 0.854997 17.5473C0.853836 16.9233 0.975817 16.305 1.21395 15.7282C1.45209 15.1513 1.8017 14.6271 2.24276 14.1855C2.68382 13.744 3.20766 13.3938 3.78428 13.155C4.3609 12.9162 4.97896 12.7935 5.60306 12.794H17.5014ZM36.5237 17.5473C36.5225 16.9234 36.6444 16.3053 36.8824 15.7286C37.1205 15.1518 37.4699 14.6277 37.9108 14.1861C38.3517 13.7446 38.8753 13.3944 39.4517 13.1555C40.0281 12.9166 40.646 12.7938 41.27 12.794C41.8941 12.7935 42.5121 12.9162 43.0887 13.155C43.6654 13.3938 44.1892 13.744 44.6302 14.1855C45.0713 14.6271 45.4209 15.1513 45.6591 15.7282C45.8972 16.305 46.0192 16.9233 46.018 17.5473C46.018 20.1789 43.8962 22.3095 41.27 22.3095H36.5237V17.5473ZM34.1532 17.5473C34.1532 20.1789 32.0313 22.3095 29.4069 22.3095C28.7822 22.3093 28.1637 22.1859 27.5869 21.9463C27.01 21.7067 26.486 21.3557 26.045 20.9133C25.604 20.471 25.2545 19.946 25.0166 19.3684C24.7788 18.7908 24.6572 18.172 24.6588 17.5473V5.6137C24.6576 4.9896 24.7796 4.37141 25.0178 3.79452C25.2559 3.21764 25.6055 2.69341 26.0466 2.25186C26.4876 1.81031 27.0115 1.46011 27.5881 1.22134C28.1647 0.982558 28.7828 0.859888 29.4069 0.860353C30.0308 0.86012 30.6487 0.982958 31.2251 1.22184C31.8015 1.46072 32.3251 1.81096 32.766 2.25249C33.2069 2.69401 33.5563 3.21817 33.7944 3.79493C34.0324 4.3717 34.1543 4.98975 34.1532 5.6137V17.5473ZM29.4069 36.6243C30.031 36.624 30.649 36.7469 31.2255 36.9859C31.802 37.2249 32.3257 37.5753 32.7666 38.017C33.2075 38.4587 33.5569 38.9831 33.7949 39.5601C34.0328 40.137 34.1545 40.7553 34.1532 41.3794C34.1545 42.0037 34.0328 42.6222 33.795 43.1995C33.5571 43.7767 33.2078 44.3015 32.767 44.7436C32.3261 45.1857 31.8025 45.5366 31.2259 45.7762C30.6493 46.0158 30.0312 46.1393 29.4069 46.1398C28.7822 46.1395 28.1637 46.0161 27.5869 45.7765C27.01 45.5369 26.486 45.1859 26.045 44.7436C25.604 44.3012 25.2545 43.7763 25.0166 43.1987C24.7788 42.6211 24.6572 42.0023 24.6588 41.3776V36.6243H29.4069ZM29.4069 34.2414C28.7822 34.2412 28.1637 34.1177 27.5869 33.8782C27.01 33.6386 26.486 33.2876 26.045 32.8452C25.604 32.4029 25.2545 31.8779 25.0166 31.3003C24.7788 30.7227 24.6572 30.1039 24.6588 29.4792C24.6576 28.8551 24.7796 28.2369 25.0178 27.6601C25.2559 27.0832 25.6055 26.5589 26.0466 26.1174C26.4876 25.6758 27.0115 25.3256 27.5881 25.0869C28.1647 24.8481 28.7828 24.7254 29.4069 24.7259H41.3052C41.9293 24.7256 42.5473 24.8485 43.1239 25.0875C43.7004 25.3265 44.2241 25.6769 44.665 26.1186C45.1059 26.5604 45.4553 27.0847 45.6932 27.6617C45.9312 28.2386 46.0529 28.8569 46.0515 29.481C46.0529 30.1053 45.9312 30.7238 45.6933 31.3011C45.4555 31.8784 45.1062 32.4031 44.6653 32.8452C44.2245 33.2874 43.7008 33.6382 43.1243 33.8778C42.5477 34.1174 41.9296 34.2409 41.3052 34.2414H29.4069Z" fill="#4A86FF" fill-opacity="0.64"/>
</svg>
