<svg width="103" height="29" viewBox="0 0 103 29" fill="none" xmlns="http://www.w3.org/2000/svg">
<path d="M56.1519 0.866211C62.097 0.866211 66.8544 2.35088 70.4886 5.65588C72.9738 7.9087 74.3616 11.1169 74.3229 14.48C74.3138 16.1394 73.9695 17.7798 73.3106 19.3028C72.6517 20.8258 71.6918 22.2 70.4886 23.3428C67.0868 26.467 61.7871 28.1325 56.1583 28.1325C50.523 28.1325 45.3138 26.467 41.8603 23.3428C40.6152 22.23 39.6234 20.8629 38.9519 19.334C38.2804 17.805 37.9449 16.1497 37.9679 14.48C37.9679 11.1362 39.3751 7.92807 41.8603 5.65588C45.0879 2.72528 50.7942 0.866211 56.1519 0.866211ZM56.1712 24.5563C59.147 24.5563 61.9033 23.5171 63.8399 21.5999C65.7764 19.6634 66.6349 17.3396 66.6349 14.48C66.6349 11.743 65.6796 9.18035 63.8399 7.36002C61.9421 5.48805 59.1083 4.42296 56.1712 4.42296C53.2342 4.42296 50.4068 5.48159 48.4897 7.36002C46.65 9.18035 45.6882 11.743 45.6882 14.48C45.6489 17.1294 46.6555 19.6876 48.4897 21.5999C50.4068 23.4977 53.2213 24.5563 56.1712 24.5563ZM24.9222 11.8528C25.955 12.1239 26.9555 12.4595 27.9303 12.9049C28.8346 13.3167 29.662 13.88 30.3767 14.5703C31.6484 15.9001 32.3714 17.6817 32.352 19.5149C32.3658 20.4869 32.1517 21.4487 31.7269 22.323C31.302 23.1974 30.6782 23.9601 29.9055 24.5499C28.5386 25.586 26.9847 26.3487 25.3289 26.7963C22.8365 27.5785 20.2332 27.9492 17.6215 27.8936C15.3493 27.8936 14.097 27.629 12.3735 27.2675L11.8765 27.1642C9.97729 26.7442 8.12267 26.1433 6.33803 25.3697C6.25824 25.3156 6.16324 25.2885 6.06692 25.2922C5.92536 25.2956 5.79074 25.3542 5.69183 25.4555C5.59291 25.5569 5.53756 25.6929 5.5376 25.8344V27.1448H1.74202V17.6042H5.12448C5.1453 18.5714 5.45311 19.5106 6.00882 20.3025C7.3773 21.9808 8.84906 22.6263 10.2498 23.1427C12.6188 23.9173 15.104 24.3304 17.5828 24.4079C21.1524 24.4079 23.2374 23.5429 23.6893 23.3557L23.7474 23.3299L23.7861 23.317C24.1863 23.1685 25.8001 22.5811 25.8001 20.7866C25.8001 19.0179 24.2896 18.6306 23.302 18.3788L23.16 18.3466C22.0626 18.0496 19.5322 17.7785 16.7694 17.488L15.7883 17.3848C13.1975 17.1209 10.6194 16.744 8.06154 16.2551C4.84691 15.5451 3.58171 14.3702 2.7942 13.6408L2.74255 13.5892C1.59454 12.3651 0.957266 10.7488 0.960953 9.07062C0.960953 5.8689 3.15568 3.93237 5.84745 2.74464C8.72641 1.45363 12.1476 0.879126 15.1428 0.879126C20.4359 0.898492 24.7415 2.622 26.2907 3.42243C26.9168 3.75809 27.2267 3.34496 27.2267 3.03512V2.07331H30.6285V10.3875H27.5817C27.3081 9.15368 26.6423 8.0417 25.6839 7.21801C25.0998 6.74826 24.4549 6.35959 23.7667 6.06255C21.2128 4.98417 18.4635 4.44573 15.6914 4.48106C12.8318 4.48106 10.0949 5.02974 8.71996 5.8689C7.86789 6.39822 7.42894 7.06309 7.42894 7.84415C7.42894 8.96088 8.37138 9.40628 8.84906 9.54184C10.1143 9.92914 12.9287 10.2067 15.1169 10.4262L16.4338 10.5617C18.5446 10.7748 22.9663 11.3622 24.9222 11.8528ZM142.192 5.41705V2.32506H155.883V5.35895H152.81C151.7 5.35895 151.248 5.57196 150.409 6.5144L141.198 17.0362C141.1 17.1656 141.056 17.3273 141.075 17.488V22.2777C141.09 22.5004 141.116 22.7223 141.152 22.9426C141.207 23.083 141.294 23.2086 141.406 23.3095C141.518 23.4103 141.652 23.4836 141.798 23.5235C142.076 23.5645 142.356 23.5861 142.637 23.5881H145.774V26.622H129.159V23.5881H132.128C132.409 23.5861 132.689 23.5646 132.967 23.5235C133.115 23.4815 133.251 23.4077 133.367 23.3073C133.483 23.207 133.576 23.0825 133.639 22.9426C133.677 22.7296 133.697 22.5135 133.697 22.2971V17.5074C133.697 17.346 133.697 17.346 133.484 17.0943C130.452 13.6398 127.413 10.1906 124.369 6.74679C123.879 6.23684 123.039 5.41705 121.748 5.41705H118.792V2.38316H135.498V5.41705H133.484C133.032 5.41705 132.722 5.8689 133.109 6.35949L138.783 13.1438C138.841 13.2212 138.88 13.2212 138.958 13.1631C139.035 13.105 144.728 6.41758 144.767 6.35949C144.814 6.29773 144.848 6.22729 144.868 6.15223C144.888 6.07716 144.892 5.99896 144.881 5.92214C144.87 5.84532 144.845 5.77141 144.805 5.70466C144.765 5.63791 144.713 5.57964 144.651 5.53324C144.536 5.45779 144.401 5.41742 144.264 5.41705H142.192ZM101.628 5.39768H104.759C106.185 5.39768 106.437 5.94636 106.456 7.2761L106.637 17.3848L89.97 2.38316H78.0604V5.41705H80.7199C82.637 5.41705 82.7726 6.47568 82.7726 7.41812V21.7032C82.7726 22.5295 82.7791 23.6075 81.5978 23.6075H78.3315V26.622H92.3003V23.5881H88.892C87.5235 23.5881 87.4719 22.9619 87.4461 21.6322V9.48374L106.637 26.5961H111.524L111.265 7.25674C111.291 5.84953 111.388 5.37831 112.834 5.37831H115.887V2.34442H101.628V5.39768Z" fill="#4A86FF" fill-opacity="0.64"/>
</svg>
